<svg width="166" height="195" viewBox="0 0 166 195" fill="none" xmlns="http://www.w3.org/2000/svg"><circle cx="83" cy="112" r="83" fill="#F2F2F7"/><mask id="mask0_855_87614" style="mask-type:alpha" maskUnits="userSpaceOnUse" x="0" y="0" width="166" height="195"><path fill-rule="evenodd" clip-rule="evenodd" d="M166 0H0V112V126H1.17573C7.83002 165.173 41.9318 195 83 195C124.068 195 158.17 165.173 164.824 126H166V112V0Z" fill="#C4C4C4"/></mask><g mask="url(#mask0_855_87614)"><rect x="30" y="14" width="107" height="193" rx="12.84" fill="white"/><path d="M74.9391 20.4336C74.3482 20.4336 73.8691 20.9136 73.8691 21.5058C73.8691 22.098 74.3482 22.578 74.9391 22.578H87.7791C88.3701 22.578 88.8491 22.098 88.8491 21.5058C88.8491 20.9136 88.3701 20.4336 87.7791 20.4336H74.9391Z" fill="#404753"/><path d="M92.0591 20.4336C91.4682 20.4336 90.9891 20.9136 90.9891 21.5058C90.9891 22.098 91.4682 22.578 92.0591 22.578C92.6501 22.578 93.1291 22.098 93.1291 21.5058C93.1291 20.9136 92.6501 20.4336 92.0591 20.4336Z" fill="#404753"/><rect x="40.1641" y="32.7637" width="86.67" height="28.95" rx="4.28" fill="#F2F2F7"/><rect x="65.3105" y="40.8057" width="53.5" height="4.28889" rx="2.14" fill="#404753"/><rect x="65.3105" y="49.3838" width="46.545" height="4.28889" rx="2.14" fill="#404753"/><rect x="48.1895" y="40.8057" width="12.84" height="12.8667" rx="2.14" fill="#404753"/><rect x="30.8025" y="14.8025" width="105.395" height="191.395" rx="12.0375" stroke="#404753" stroke-width="1.605"/></g></svg> 
