<svg width="166" height="195" viewBox="0 0 166 195" fill="none" xmlns="http://www.w3.org/2000/svg"><circle cx="83" cy="112" r="83" fill="#F2F2F7"/><mask id="mask0_1253_37450" style="mask-type:alpha" maskUnits="userSpaceOnUse" x="0" y="0" width="166" height="195"><path fill-rule="evenodd" clip-rule="evenodd" d="M166 0H0V112V126H1.17573C7.83002 165.173 41.9318 195 83 195C124.068 195 158.17 165.173 164.824 126H166V112V0Z" fill="#C4C4C4"/></mask><g mask="url(#mask0_1253_37450)"><rect x="30" y="14" width="107" height="193" rx="12.84" fill="white"/><path d="M74.9391 20.4336C74.3482 20.4336 73.8691 20.9136 73.8691 21.5058C73.8691 22.098 74.3482 22.578 74.9391 22.578H87.7791C88.3701 22.578 88.8491 22.098 88.8491 21.5058C88.8491 20.9136 88.3701 20.4336 87.7791 20.4336H74.9391Z" fill="#404753"/><path d="M92.0591 20.4336C91.4682 20.4336 90.9891 20.9136 90.9891 21.5058C90.9891 22.098 91.4682 22.578 92.0591 22.578C92.6501 22.578 93.1291 22.098 93.1291 21.5058C93.1291 20.9136 92.6501 20.4336 92.0591 20.4336Z" fill="#404753"/><rect x="40.1641" y="32.7637" width="86.67" height="28.95" rx="4.28" fill="#F2F2F7"/><rect x="65.3105" y="40.8057" width="53.5" height="4.28889" rx="2.14" fill="#404753"/><rect x="65.3105" y="49.3838" width="46.545" height="4.28889" rx="2.14" fill="#404753"/><rect x="48.1895" y="40.8057" width="12.84" height="12.8667" rx="2.14" fill="#404753"/><rect x="30.8025" y="14.8025" width="105.395" height="191.395" rx="12.0375" stroke="#404753" stroke-width="1.605"/><rect x="30" y="14" width="107" height="193" rx="12.84" fill="white"/><rect x="40.1641" y="32.7637" width="86.67" height="28.95" rx="4.28" fill="#F2F2F7"/><rect x="40.1641" y="66.002" width="86.67" height="28.95" rx="4.28" fill="#F2F2F7"/><rect x="48.1895" y="40.8057" width="69.015" height="4.28889" rx="2.14" fill="#DFDFE7"/><rect x="48.1895" y="74.0439" width="49.755" height="4.28889" rx="2.14" fill="#404753"/><rect x="48.1895" y="49.3838" width="28.355" height="4.28889" rx="2.14" fill="#DFDFE7"/><rect x="48.1895" y="82.623" width="55.64" height="4.28889" rx="2.14" fill="#404753"/><rect x="30.8025" y="14.8025" width="105.395" height="191.395" rx="12.0375" stroke="#404753" stroke-width="1.605"/><path d="M74.9391 20.4336C74.3482 20.4336 73.8691 20.9136 73.8691 21.5058C73.8691 22.098 74.3482 22.578 74.9391 22.578H87.7791C88.3701 22.578 88.8491 22.098 88.8491 21.5058C88.8491 20.9136 88.3701 20.4336 87.7791 20.4336H74.9391Z" fill="#404753"/><path d="M92.0591 20.4336C91.4682 20.4336 90.9891 20.9136 90.9891 21.5058C90.9891 22.098 91.4682 22.578 92.0591 22.578C92.6501 22.578 93.1291 22.098 93.1291 21.5058C93.1291 20.9136 92.6501 20.4336 92.0591 20.4336Z" fill="#404753"/><rect x="30" y="14" width="107" height="193" rx="12.84" fill="white"/><path d="M74.9391 20.4336C74.3482 20.4336 73.8691 20.9136 73.8691 21.5058C73.8691 22.098 74.3482 22.578 74.9391 22.578H87.7791C88.3701 22.578 88.8491 22.098 88.8491 21.5058C88.8491 20.9136 88.3701 20.4336 87.7791 20.4336H74.9391Z" fill="#404753"/><path d="M92.0591 20.4336C91.4682 20.4336 90.9891 20.9136 90.9891 21.5058C90.9891 22.098 91.4682 22.578 92.0591 22.578C92.6501 22.578 93.1291 22.098 93.1291 21.5058C93.1291 20.9136 92.6501 20.4336 92.0591 20.4336Z" fill="#404753"/><rect x="40" y="33.001" width="86.67" height="56.8278" rx="4.28" fill="#F2F2F7"/><path d="M94 51H72C71.4477 51 71 51.4477 71 52V70C71 70.5523 71.4477 71 72 71H94C94.5523 71 95 70.5523 95 70V52C95 51.4477 94.5523 51 94 51Z" stroke="#DFDFE7" stroke-width="2" stroke-linecap="round" stroke-linejoin="round"/><path d="M71 65.9998L77.2929 59.707C77.3857 59.6141 77.496 59.5404 77.6173 59.4902C77.7386 59.4399 77.8687 59.4141 78 59.4141C78.1313 59.4141 78.2613 59.4399 78.3827 59.4902C78.504 59.5404 78.6142 59.6141 78.7071 59.707L84.2929 65.2927C84.3857 65.3856 84.496 65.4593 84.6173 65.5095C84.7386 65.5598 84.8687 65.5856 85 65.5856C85.1313 65.5856 85.2613 65.5598 85.3827 65.5095C85.504 65.4593 85.6142 65.3856 85.7071 65.2927L88.2929 62.707C88.3857 62.6141 88.496 62.5404 88.6173 62.4902C88.7386 62.4399 88.8687 62.4141 89 62.4141C89.1313 62.4141 89.2613 62.4399 89.3827 62.4902C89.504 62.5404 89.6142 62.6141 89.7071 62.707L95 67.9999" stroke="#DFDFE7" stroke-width="2" stroke-linecap="round" stroke-linejoin="round"/><path d="M86.5 59C87.3284 59 88 58.3284 88 57.5C88 56.6716 87.3284 56 86.5 56C85.6716 56 85 56.6716 85 57.5C85 58.3284 85.6716 59 86.5 59Z" fill="#DFDFE7"/><rect x="30.8025" y="14.8025" width="105.395" height="191.395" rx="12.0375" stroke="#404753" stroke-width="1.605"/><rect x="40.1641" y="102.995" width="86.67" height="4.28889" rx="2.14444" fill="#404753"/><rect x="40.1641" y="124.439" width="86.67" height="2.14444" rx="1.07222" fill="#E8E8EE"/><rect x="40.1641" y="129.801" width="86.67" height="2.14444" rx="1.07222" fill="#E8E8EE"/><rect x="40.1641" y="135.161" width="73.295" height="2.14444" rx="1.07222" fill="#E8E8EE"/><rect x="40.1641" y="143.739" width="86.67" height="2.14444" rx="1.07222" fill="#E8E8EE"/><rect x="40.1641" y="149.101" width="86.67" height="2.14444" rx="1.07222" fill="#E8E8EE"/><rect x="40.1641" y="154.461" width="86.67" height="2.14444" rx="1.07222" fill="#E8E8EE"/><rect x="40.1641" y="159.821" width="86.67" height="2.14444" rx="1.07222" fill="#E8E8EE"/><rect x="40.1641" y="165.183" width="38.52" height="2.14444" rx="1.07222" fill="#E8E8EE"/><rect x="40.1641" y="111.571" width="66.875" height="4.28889" rx="2.14444" fill="#404753"/></g></svg> 
